<?xml version="1.0" encoding="UTF-8" standalone="no"?>
<svg
   xmlns:osb="http://www.openswatchbook.org/uri/2009/osb"
   xmlns:dc="http://purl.org/dc/elements/1.1/"
   xmlns:cc="http://creativecommons.org/ns#"
   xmlns:rdf="http://www.w3.org/1999/02/22-rdf-syntax-ns#"
   xmlns:svg="http://www.w3.org/2000/svg"
   xmlns="http://www.w3.org/2000/svg"
   xmlns:sodipodi="http://sodipodi.sourceforge.net/DTD/sodipodi-0.dtd"
   xmlns:inkscape="http://www.inkscape.org/namespaces/inkscape"
   width="71.319mm"
   height="60.931999mm"
   viewBox="0 0 71.319 60.931999"
   version="1.1"
   id="svg8"
   inkscape:version="1.0.2-2 (e86c870879, 2021-01-15)"
   sodipodi:docname="arrow.svg">
  <defs
     id="defs2">
    <rect
       x="87.690475"
       y="117.5506"
       width="44.790176"
       height="16.252975"
       id="rect5603" />
    <linearGradient
       id="linearGradient5575"
       osb:paint="solid">
      <stop
         style="stop-color:#fbfad3;stop-opacity:1;"
         offset="0"
         id="stop5573" />
    </linearGradient>
    <linearGradient
       id="linearGradient1833"
       osb:paint="solid">
      <stop
         style="stop-color:#fbfad3;stop-opacity:1;"
         offset="0"
         id="stop1831" />
    </linearGradient>
  </defs>
  <sodipodi:namedview
     id="base"
     pagecolor="#ffffff"
     bordercolor="#666666"
     borderopacity="1.0"
     inkscape:pageopacity="0.0"
     inkscape:pageshadow="2"
     inkscape:zoom="1.979899"
     inkscape:cx="93.643755"
     inkscape:cy="150.82944"
     inkscape:document-units="mm"
     inkscape:current-layer="g866"
     inkscape:document-rotation="0"
     showgrid="false"
     inkscape:window-width="1267"
     inkscape:window-height="1040"
     inkscape:window-x="268"
     inkscape:window-y="0"
     inkscape:window-maximized="0"
     objecttolerance="20"
     guidetolerance="20" />
  <metadata
     id="metadata5">
    <rdf:RDF>
      <cc:Work
         rdf:about="">
        <dc:format>image/svg+xml</dc:format>
        <dc:type
           rdf:resource="http://purl.org/dc/dcmitype/StillImage" />
        <dc:title />
      </cc:Work>
    </rdf:RDF>
  </metadata>
  <g
     inkscape:label="Layer 1"
     inkscape:groupmode="layer"
     id="layer1">
    <g
       id="g850"
       transform="translate(3.4017857,1.3229167)">
      <g
         id="g858"
         transform="translate(-83.674356,-98.322761)">
        <g
           id="g866">
          <g
             id="g5599"
             transform="matrix(0.96145358,0,0,1.0016157,8.1984297,-8.9139094)"
             style="stroke-width:3.05708;stroke-miterlimit:4;stroke-dasharray:none">
            <path
               sodipodi:type="star"
               style="opacity:1;fill:#fbfad3;fill-opacity:1;stroke-width:2.59103;stroke-miterlimit:4;stroke-dasharray:none"
               id="path5583"
               sodipodi:sides="3"
               sodipodi:cx="82.587791"
               sodipodi:cy="131.9137"
               sodipodi:r1="33.706703"
               sodipodi:r2="16.853352"
               sodipodi:arg1="2.0943951"
               sodipodi:arg2="3.1415927"
               inkscape:flatsided="false"
               inkscape:rounded="0"
               inkscape:randomized="0"
               d="m 65.73444,161.10456 0,-29.19086 0,-29.19086 25.280028,14.59543 25.280022,14.59543 -25.280023,14.59543 z"
               inkscape:transform-center-x="-11.853573"
               transform="matrix(1.4066726,0,0,0.98963329,-15.846404,5.9032255)" />
            <path
               style="fill:none;stroke:#000000;stroke-width:3.05708;stroke-linecap:butt;stroke-linejoin:round;stroke-miterlimit:4;stroke-dasharray:none;stroke-opacity:1"
               d="M 76.620432,107.56115 147.74186,136.4494 76.620432,165.33766 V 107.56115"
               id="path5585" />
            <path
               style="fill:none;stroke:#36622b;stroke-width:3.05708;stroke-linecap:butt;stroke-linejoin:round;stroke-miterlimit:4;stroke-dasharray:none;stroke-opacity:1"
               d="M 76.620432,107.56115 147.74186,136.4494 76.620432,165.33766 Z"
               id="path5594" />
          </g>
          <g
             aria-label="Przejdź"
             transform="translate(-1.433623,2.078869)"
             id="text5601"
             style="font-style:normal;font-variant:normal;font-weight:normal;font-stretch:normal;font-size:12.7px;line-height:0;font-family:Roboto;-inkscape-font-specification:Roboto;white-space:pre;shape-inside:url(#rect5603);fill:#36622b;fill-opacity:1;stroke:none">
            <path
               d="m 89.930029,125.76361 v 3.53467 h -1.190625 v -9.0289 h 3.33003 q 1.48208,0 2.319238,0.75654 0.843359,0.75654 0.843359,2.00298 0,1.31464 -0.824756,2.02778 -0.818554,0.70693 -2.350244,0.70693 z m 0,-0.97358 h 2.139405 q 0.95498,0 1.463476,-0.44649 0.508496,-0.45268 0.508496,-1.30224 0,-0.80615 -0.508496,-1.28984 -0.508496,-0.4837 -1.395264,-0.5023 h -2.207617 z"
               style="font-style:normal;font-variant:normal;font-weight:normal;font-stretch:normal;font-size:12.7px;line-height:1.35;font-family:Roboto;-inkscape-font-specification:Roboto;text-align:start;writing-mode:lr-tb;direction:ltr;text-anchor:start"
               id="path862" />
            <path
               d="m 99.814697,123.61801 q -0.260449,-0.0434 -0.564306,-0.0434 -1.128614,0 -1.53169,0.96118 v 4.7625 h -1.147216 v -6.70967 h 1.11621 l 0.0186,0.77515 q 0.564307,-0.89917 1.599902,-0.89917 0.334864,0 0.508496,0.0868 z"
               style="font-style:normal;font-variant:normal;font-weight:normal;font-stretch:normal;font-size:12.7px;line-height:1.35;font-family:Roboto;-inkscape-font-specification:Roboto;text-align:start;writing-mode:lr-tb;direction:ltr;text-anchor:start"
               id="path864" />
            <path
               d="m 101.9479,128.3619 h 3.92534 v 0.93638 h -5.3268 v -0.84336 l 3.7021,-4.91753 h -3.64629 v -0.94878 h 5.08496 v 0.81236 z"
               style="font-style:normal;font-variant:normal;font-weight:normal;font-stretch:normal;font-size:12.7px;line-height:1.35;font-family:Roboto;-inkscape-font-specification:Roboto;text-align:start;writing-mode:lr-tb;direction:ltr;text-anchor:start"
               id="path866" />
            <path
               d="m 109.84819,129.4223 q -1.36425,0 -2.22002,-0.89296 -0.85576,-0.89917 -0.85576,-2.39986 v -0.21084 q 0,-0.99839 0.37827,-1.77973 0.38448,-0.78755 1.06661,-1.22784 0.68833,-0.44648 1.48828,-0.44648 1.30844,0 2.03398,0.86196 0.72554,0.86197 0.72554,2.46807 v 0.47749 h -4.54546 q 0.0248,0.99219 0.57671,1.6061 0.5581,0.60772 1.41387,0.60772 0.60771,0 1.02939,-0.24805 0.42168,-0.24805 0.73794,-0.65732 l 0.70073,0.5457 q -0.84336,1.29604 -2.53008,1.29604 z m -0.14262,-6.01513 q -0.69453,0 -1.16582,0.50849 -0.47129,0.5023 -0.58291,1.41387 h 3.36103 v -0.0868 q -0.0496,-0.87436 -0.47129,-1.35185 -0.42168,-0.48369 -1.14101,-0.48369 z"
               style="font-style:normal;font-variant:normal;font-weight:normal;font-stretch:normal;font-size:12.7px;line-height:1.35;font-family:Roboto;-inkscape-font-specification:Roboto;text-align:start;writing-mode:lr-tb;direction:ltr;text-anchor:start"
               id="path868" />
            <path
               d="m 114.97656,122.58861 v 7.48482 q 0,1.93476 -1.75493,1.93476 -0.37827,0 -0.70073,-0.11162 v -0.91777 q 0.19844,0.0496 0.5209,0.0496 0.38447,0 0.58291,-0.21084 0.20464,-0.20464 0.20464,-0.71934 v -7.50962 z m -1.26504,-1.77973 q 0,-0.27285 0.16744,-0.46509 0.17363,-0.19844 0.50229,-0.19844 0.33486,0 0.5085,0.19224 0.17363,0.19223 0.17363,0.47129 0,0.27905 -0.17363,0.46508 -0.17364,0.18604 -0.5085,0.18604 -0.33486,0 -0.50229,-0.18604 -0.16744,-0.18603 -0.16744,-0.46508 z"
               style="font-style:normal;font-variant:normal;font-weight:normal;font-stretch:normal;font-size:12.7px;line-height:1.35;font-family:Roboto;-inkscape-font-specification:Roboto;text-align:start;writing-mode:lr-tb;direction:ltr;text-anchor:start"
               id="path870" />
            <path
               d="m 116.54546,125.88764 q 0,-1.5441 0.73174,-2.48047 0.73174,-0.94258 1.91616,-0.94258 1.17822,0 1.86655,0.80615 v -3.49746 h 1.14722 v 9.525 h -1.0542 l -0.0558,-0.71933 q -0.68833,0.84335 -1.91616,0.84335 -1.16582,0 -1.90376,-0.95498 -0.73174,-0.95498 -0.73174,-2.49287 z m 1.14722,0.13022 q 0,1.14102 0.47129,1.78594 0.47128,0.64492 1.30224,0.64492 1.09141,0 1.5937,-0.97978 v -3.08199 q -0.51469,-0.94878 -1.5813,-0.94878 -0.84336,0 -1.31464,0.65113 -0.47129,0.65112 -0.47129,1.92856 z"
               style="font-style:normal;font-variant:normal;font-weight:normal;font-stretch:normal;font-size:12.7px;line-height:1.35;font-family:Roboto;-inkscape-font-specification:Roboto;text-align:start;writing-mode:lr-tb;direction:ltr;text-anchor:start"
               id="path872" />
            <path
               d="m 125.06587,128.3619 h 3.92534 v 0.93638 h -5.3268 v -0.84336 l 3.70209,-4.91753 h -3.64628 v -0.94878 h 5.08496 v 0.81236 z m 1.80454,-8.58862 h 1.38906 l -1.66191,1.82315 h -0.92398 z"
               style="font-style:normal;font-variant:normal;font-weight:normal;font-stretch:normal;font-size:12.7px;line-height:1.35;font-family:Roboto;-inkscape-font-specification:Roboto;text-align:start;writing-mode:lr-tb;direction:ltr;text-anchor:start"
               id="path874" />
          </g>
        </g>
      </g>
    </g>
  </g>
</svg>
