<?xml version="1.0" encoding="UTF-8" standalone="no"?>
<svg
   xmlns:dc="http://purl.org/dc/elements/1.1/"
   xmlns:cc="http://creativecommons.org/ns#"
   xmlns:rdf="http://www.w3.org/1999/02/22-rdf-syntax-ns#"
   xmlns:svg="http://www.w3.org/2000/svg"
   xmlns="http://www.w3.org/2000/svg"
   xmlns:sodipodi="http://sodipodi.sourceforge.net/DTD/sodipodi-0.dtd"
   xmlns:inkscape="http://www.inkscape.org/namespaces/inkscape"
   width="50"
   height="50"
   viewBox="0 0 13.229167 13.229167"
   version="1.1"
   id="svg8"
   inkscape:version="1.0 (4035a4fb49, 2020-05-01)"
   sodipodi:docname="bardziejEKO.svg">
  <defs
     id="defs2" />
  <sodipodi:namedview
     id="base"
     pagecolor="#ffffff"
     bordercolor="#666666"
     borderopacity="1.0"
     inkscape:pageopacity="0.0"
     inkscape:pageshadow="2"
     inkscape:zoom="6.7199938"
     inkscape:cx="-9.249914"
     inkscape:cy="16.699896"
     inkscape:document-units="px"
     inkscape:current-layer="svg8"
     inkscape:document-rotation="0"
     showgrid="false"
     inkscape:window-width="1920"
     inkscape:window-height="1017"
     inkscape:window-x="1912"
     inkscape:window-y="-8"
     inkscape:window-maximized="1"
     units="px"
     fit-margin-top="0"
     fit-margin-left="0"
     fit-margin-right="0"
     fit-margin-bottom="0" />
  <metadata
     id="metadata5">
    <rdf:RDF>
      <cc:Work
         rdf:about="">
        <dc:format>image/svg+xml</dc:format>
        <dc:type
           rdf:resource="http://purl.org/dc/dcmitype/StillImage" />
        <dc:title></dc:title>
      </cc:Work>
    </rdf:RDF>
  </metadata>
  <g
     inkscape:label="Warstwa 1"
     inkscape:groupmode="layer"
     id="layer1"
     transform="translate(0.23272304,0.01970748)" />
  <path
     id="path10"
     d="m 0.79685846,10.779111 c -0.1317761,0.748179 -0.0865528,1.172138 -0.66213229,1.90987 -0.33109076,0.545713 2.86e-6,0.737733 0.43168166,0.295091 C 0.99808691,12.541434 1.4094855,11.464641 1.5736782,11.508609 6.5465983,12.356942 11.741149,4.2677178 12.443961,2.1534561 12.589208,1.7165803 8.9490683,2.5924477 7.7327821,3.8204461 6.3317633,4.9119935 9.8508866,4.3952864 9.1723069,5.1848954 8.0489479,6.4920375 6.6099983,6.0493986 6.6099983,6.0493986 6.0344186,5.9018521 5.743607,5.0484445 5.9006538,4.2297689 6.424115,1.5008912 11.520618,2.2609642 13.229167,0 6.7106099,1.0272882 2.4382422,1.1314736 0.79685846,10.779111 Z"
     style="fill:#729d39;fill-opacity:1;stroke-width:0.291419" />
</svg>
