<svg xmlns="http://www.w3.org/2000/svg" id="Warstwa_1" width="110" height="40" data-name="Warstwa 1" viewBox="0 0 142.16 35.62"><defs><style>.cls-1{fill:#f0008c}</style></defs><path d="M451.89 299.53c-.47 0-.67-.16-.67-.64v-1c0-.48.2-.66.68-.66h39.84c.47 0 .68.19.67.66v1c0 .48-.21.64-.68.64zM474.75 280.5c.38 0 .55.13.55.51v1.32a.71.71 0 01-.11.4l-3.34 4.53h3.26c.39 0 .55.13.55.51v1.34c0 .38-.17.53-.55.53h-6.28c-.38 0-.55-.15-.55-.53v-1.33a.72.72 0 01.11-.39l3.31-4.51h-2.53c-.38 0-.55-.15-.54-.53V281c0-.39.16-.51.55-.51z" transform="translate(-350.26 -280.48)"/><path d="M358.53 293.58c.49 0 .7.17.7.66v1.69a1 1 0 01-.14.52l-4.27 5.81H359c.49 0 .7.16.7.65v1.71c0 .49-.21.68-.7.68h-8c-.49 0-.7-.19-.7-.68v-1.72a.88.88 0 01.14-.49l4.22-5.79h-3.23c-.49 0-.7-.19-.7-.68v-1.71c0-.49.21-.66.7-.66zM374.82 304.66c-.14.47-.21.63-.7.63h-2.88c-.49 0-.61-.21-.7-.63l-1-4.47a9.68 9.68 0 01-.21-1.29c0 .07-.16.77-.3 1.29l-1.34 4.47c-.12.42-.21.63-.7.63h-2.79c-.49 0-.59-.19-.7-.63l-2.81-10.38c-.14-.49.19-.7.68-.7h2.29c.49 0 .66.28.77.7l1.36 5.2c.12.51.16 1.12.19 1.19s.16-.77.28-1.19l1.45-5.2c.12-.42.28-.7.77-.7h2.27c.49 0 .68.28.77.7l1.12 5.2.21 1.19c0-.12.16-.84.26-1.19l1.31-5.2c.12-.42.28-.7.77-.7h1.9c.49 0 .82.21.68.7zM385.76 297.35c0-.77-.66-1-1.62-1s-1.61.26-1.61 1v4.15c0 .8.66 1.05 1.61 1.05s1.62-.26 1.62-1.05zm-7-.3c0-2.23 1.83-3.65 5.36-3.65s5.36 1.43 5.36 3.65v4.78c0 2.23-1.83 3.65-5.36 3.65s-5.36-1.43-5.36-3.65zM395.78 304.59c0 .49-.16.7-.66.7h-2.41c-.49 0-.68-.21-.68-.7v-15c0-.49.19-.71.68-.71h2.41c.49 0 .66.21.66.71zM401.24 293.58c.49 0 .63.19.68.68v.4a5.46 5.46 0 013.63-1.27 3.16 3.16 0 013.44 3.26v7.94c0 .49-.19.7-.68.7H406c-.49 0-.71-.21-.71-.7v-7c0-.73-.14-1-.89-1a4.37 4.37 0 00-2.34.94v7.05c0 .49-.17.7-.66.7H399c-.49 0-.68-.21-.68-.7v-10.32c0-.49.19-.68.68-.68zM415.31 304.59c0 .49-.16.7-.66.7h-2.41c-.49 0-.68-.21-.68-.7v-10.31c0-.49.19-.7.68-.7h2.41c.49 0 .66.21.66.7zm0-13c0 .49-.16.68-.66.68h-2.41c-.49 0-.68-.19-.68-.68v-1.94c0-.49.19-.71.68-.71h2.41c.49 0 .66.21.66.71zM421.48 297.89h2.83v-.68c0-.7-.45-1.06-1.43-1.06s-1.41.35-1.41 1.06zm6.32 1.76c0 .45-.19.63-.63.63h-5.69v1.41c0 .7.42 1 1.41 1s1.43-.33 1.43-1c0-.49.19-.68.68-.68h2c.49 0 .68.19.68.68v.17c0 2.23-1.26 3.65-4.8 3.65s-5.06-1.43-5.06-3.65V297c0-2.23 1.52-3.65 5.06-3.65s4.92 1.43 4.92 3.65zM433.25 293.58c.49 0 .63.19.68.68v.4a5.46 5.46 0 013.63-1.27 3.16 3.16 0 013.45 3.26v7.94c0 .49-.19.7-.68.7H438c-.49 0-.71-.21-.71-.7v-7c0-.73-.14-1-.89-1a4.38 4.38 0 00-2.34.94v7.05c0 .49-.16.7-.66.7H431c-.49 0-.68-.21-.68-.7v-10.32c0-.49.19-.68.68-.68zM447.32 304.59c0 .49-.17.7-.66.7h-2.42c-.49 0-.68-.21-.68-.7v-10.31c0-.49.19-.7.68-.7h2.42c.49 0 .66.21.66.7zm0-13c0 .49-.17.68-.66.68h-2.42c-.49 0-.68-.19-.68-.68v-1.94c0-.49.19-.71.68-.71h2.42c.49 0 .66.21.66.71z" class="cls-1" transform="translate(-350.26 -280.48)"/><path d="M457 306.82c.38 0 .55.13.55.51v1.25c0 .39-.17.53-.55.53h-1.48v3.65c0 .61.42.81 1.17.81h.44c.38 0 .55.17.55.55v1.3c0 .38-.17.53-.55.53h-.92c-2.77 0-3.63-.93-3.63-2.86v-4h-.81c-.38 0-.53-.15-.53-.53v-1.12c0-.39.15-.48.53-.53l.79-.11v-1.67c0-.39.15-.55.53-.55H455c.39 0 .52.16.52.55v1.67zM461.59 310.16h2.22v-.53c0-.55-.35-.83-1.12-.83s-1.1.27-1.1.83zm5 1.38c0 .35-.15.5-.5.5h-4.46v1.1c0 .55.33.81 1.1.81s1.12-.26 1.12-.81c0-.38.15-.53.53-.53h1.58c.39 0 .53.15.53.53v.13c0 1.74-1 2.86-3.76 2.86s-4-1.12-4-2.86v-3.77c0-1.74 1.19-2.86 4-2.86s3.85 1.12 3.85 2.86zM473.35 309.74c0-.6-.51-.81-1.27-.81s-1.27.2-1.27.81V313c0 .62.51.82 1.27.82s1.27-.2 1.27-.82zm-5.47-.24c0-1.74 1.43-2.86 4.2-2.86s4.2 1.12 4.2 2.86v3.74c0 1.75-1.43 2.86-4.2 2.86s-4.2-1.12-4.2-2.86zM483.75 307.17v1.43c0 .38-.17.51-.55.55a4.27 4.27 0 00-2.48 1v5.25c0 .39-.13.55-.51.55h-1.89c-.39 0-.53-.16-.53-.55v-8.09c0-.39.14-.53.53-.53h1.76c.39 0 .49.15.53.53l.05.51a3.23 3.23 0 012.53-1.19c.38 0 .55.15.55.53M487.85 315.41c0 .38-.13.55-.51.55h-1.89c-.39 0-.53-.17-.53-.55v-8.07c0-.38.15-.55.53-.55h1.89c.38 0 .51.17.51.55zm0-10.2c0 .38-.13.53-.51.53h-1.89c-.39 0-.53-.15-.53-.53v-1.52c0-.39.15-.55.53-.55h1.89c.38 0 .51.16.51.55zM492.42 315.41c0 .38-.13.55-.52.55H490c-.38 0-.53-.17-.53-.55v-8.07c0-.38.15-.55.53-.55h1.89c.39 0 .52.17.52.55zm0-10.2c0 .38-.13.53-.52.53H490c-.38 0-.53-.15-.53-.53v-1.52c0-.39.15-.55.53-.55h1.89c.39 0 .52.16.52.55z" transform="translate(-350.26 -280.48)"/></svg>
